<?xml version="1.0" encoding="UTF-8" standalone="no"?>
<!DOCTYPE svg PUBLIC "-//W3C//DTD SVG 1.1//EN" "http://www.w3.org/Graphics/SVG/1.1/DTD/svg11.dtd">
<svg width="100%" height="100%" viewBox="0 0 74 56" version="1.1" xmlns="http://www.w3.org/2000/svg" xmlns:xlink="http://www.w3.org/1999/xlink" xml:space="preserve" xmlns:serif="http://www.serif.com/" style="fill-rule:evenodd;clip-rule:evenodd;stroke-linejoin:round;stroke-miterlimit:2;">
    <g id="path4671" transform="matrix(0.707071,0,0,0.66321,-4.67988,16.1262)">
        <path d="M-231.537,47.882L-67.277,47.882C-65.452,47.882 -63.627,47.882 -61.802,47.882C-59.977,47.882 -58.152,47.882 -56.327,47.882C-54.502,47.882 -52.677,47.882 -50.851,47.882C-49.026,47.882 -47.201,47.882 -45.376,47.882C-43.551,47.882 -41.726,47.881 -39.901,47.881C-38.076,47.88 -36.251,47.879 -34.425,47.877C-32.6,47.875 -30.775,47.872 -28.95,47.865C-27.125,47.858 -25.3,47.847 -23.475,47.825C-21.65,47.804 -19.825,47.771 -17.999,47.711C-16.174,47.65 -14.349,47.562 -12.524,47.413C-10.699,47.263 -8.874,47.052 -7.049,46.721C-5.224,46.39 -3.399,45.937 -1.573,45.283C0.252,44.629 2.077,43.77 3.902,42.623C5.727,41.476 7.552,40.035 9.377,38.259C11.202,36.483 13.027,34.366 14.853,31.961C16.678,29.556 18.503,26.862 20.328,24.064C22.153,21.266 23.978,18.368 25.803,15.664C27.628,12.96 29.453,10.46 31.279,8.475C33.104,6.491 34.929,5.033 36.754,4.3C38.579,3.568 40.404,3.57 42.229,4.3C44.054,5.031 45.879,6.492 47.705,8.475C49.53,10.459 51.355,12.96 53.18,15.664C55.005,18.367 56.83,21.266 58.655,24.064C60.48,26.862 62.305,29.556 64.131,31.961C65.956,34.366 67.781,36.482 69.606,38.259C71.431,40.036 73.256,41.475 75.081,42.623C76.906,43.771 78.731,44.629 80.557,45.283C82.382,45.938 84.207,46.389 86.032,46.721C87.857,47.052 89.682,47.263 91.507,47.413C93.332,47.562 95.157,47.65 96.983,47.711C98.808,47.771 100.633,47.803 102.458,47.825C104.283,47.847 106.108,47.858 107.933,47.865C109.758,47.872 111.583,47.875 113.409,47.877C115.234,47.879 117.059,47.88 118.884,47.881C120.709,47.881 122.534,47.882 124.359,47.882C126.184,47.882 128.009,47.882 129.835,47.882C131.66,47.882 133.485,47.882 135.31,47.882C137.135,47.882 138.96,47.882 140.785,47.882C142.61,47.882 144.435,47.882 146.26,47.882L310.52,47.882" style="fill:rgb(255,102,0);fill-opacity:0.8;fill-rule:nonzero;"/>
    </g>
    <g id="path46711" serif:id="path4671" transform="matrix(0.707071,0,0,0.66321,22.4594,16.1262)">
        <path d="M-231.537,47.882L-67.277,47.882C-65.452,47.882 -63.627,47.882 -61.802,47.882C-59.977,47.882 -58.152,47.882 -56.327,47.882C-54.502,47.882 -52.677,47.882 -50.851,47.882C-49.026,47.882 -47.201,47.882 -45.376,47.882C-43.551,47.882 -41.726,47.881 -39.901,47.881C-38.076,47.88 -36.251,47.879 -34.425,47.877C-32.6,47.875 -30.775,47.872 -28.95,47.865C-27.125,47.858 -25.3,47.847 -23.475,47.825C-21.65,47.804 -19.825,47.771 -17.999,47.711C-16.174,47.65 -14.349,47.562 -12.524,47.413C-10.699,47.263 -8.874,47.052 -7.049,46.721C-5.224,46.39 -3.399,45.937 -1.573,45.283C0.252,44.629 2.077,43.77 3.902,42.623C5.727,41.476 7.552,40.035 9.377,38.259C11.202,36.483 13.027,34.366 14.853,31.961C16.678,29.556 18.503,26.862 20.328,24.064C22.153,21.266 23.978,18.368 25.803,15.664C27.628,12.96 29.453,10.46 31.279,8.475C33.104,6.491 34.929,5.033 36.754,4.3C38.579,3.568 40.404,3.57 42.229,4.3C44.054,5.031 45.879,6.492 47.705,8.475C49.53,10.459 51.355,12.96 53.18,15.664C55.005,18.367 56.83,21.266 58.655,24.064C60.48,26.862 62.305,29.556 64.131,31.961C65.956,34.366 67.781,36.482 69.606,38.259C71.431,40.036 73.256,41.475 75.081,42.623C76.906,43.771 78.731,44.629 80.557,45.283C82.382,45.938 84.207,46.389 86.032,46.721C87.857,47.052 89.682,47.263 91.507,47.413C93.332,47.562 95.157,47.65 96.983,47.711C98.808,47.771 100.633,47.803 102.458,47.825C104.283,47.847 106.108,47.858 107.933,47.865C109.758,47.872 111.583,47.875 113.409,47.877C115.234,47.879 117.059,47.88 118.884,47.881C120.709,47.881 122.534,47.882 124.359,47.882C126.184,47.882 128.009,47.882 129.835,47.882C131.66,47.882 133.485,47.882 135.31,47.882C137.135,47.882 138.96,47.882 140.785,47.882C142.61,47.882 144.435,47.882 146.26,47.882L310.52,47.882" style="fill:rgb(55,113,200);fill-opacity:0.8;fill-rule:nonzero;"/>
    </g>
    <rect id="rect2" x="0" y="-0.118" width="8" height="54" style="fill:rgb(145,145,145);"/>
    <rect id="rect4" x="0" y="47.882" width="74" height="8" style="fill:rgb(145,145,145);"/>
    <g id="g8" opacity="0.5">
        <path id="polygon6" d="M0.293,-0.118L2.293,-0.118L2.285,52.976L73.907,53.857L73.882,55.847L0.285,54.951L0.293,-0.118Z" style="fill:rgb(113,113,113);fill-rule:nonzero;"/>
    </g>
    <path id="polygon10" d="M74.285,47.843L8.285,47.843L8.285,-0.158L6.785,49.843L74.285,47.843Z" style="fill:rgb(113,113,113);fill-rule:nonzero;"/>
    <path id="path76" d="M0.285,-0.158L0.87,13.587L1.327,27.334C1.656,36.499 1.804,45.667 2.027,54.833L1.301,54.111C13.468,54.189 25.631,54.507 37.796,54.699L56.041,55.185C62.122,55.384 68.203,55.574 74.283,55.841C68.199,55.943 62.115,55.967 56.029,56L37.779,55.988C25.614,55.849 13.447,55.835 1.283,55.581L0.566,55.566L0.557,54.859C0.446,45.691 0.257,36.523 0.25,27.353L0.203,13.599L0.285,-0.158Z" style="fill:rgb(75,75,75);fill-opacity:0.6;fill-rule:nonzero;"/>
</svg>
